<svg xmlns="http://www.w3.org/2000/svg" xmlns:xlink="http://www.w3.org/1999/xlink" version="1.1" style="" xml:space="preserve" width="412.735" height="412.735"><rect id="backgroundrect" width="100%" height="100%" x="0" y="0" fill="none" stroke="none"/>
















<g class="currentLayer" style=""><title>Layer 1</title><g id="svg_1" class="" fill="#eb1a1a" fill-opacity="1">
	<g id="svg_2" fill="#eb1a1a" fill-opacity="1">
		<path d="M295.706,35.522C295.706,35.522,295.706,35.522,295.706,35.522c-34.43-0.184-67.161,14.937-89.339,41.273    c-22.039-26.516-54.861-41.68-89.339-41.273C52.395,35.522,0,87.917,0,152.55C0,263.31,193.306,371.456,201.143,375.636    c3.162,2.113,7.286,2.113,10.449,0c7.837-4.18,201.143-110.759,201.143-223.086C412.735,87.917,360.339,35.522,295.706,35.522z     M206.367,354.738C176.065,336.975,20.898,242.412,20.898,152.55c0-53.091,43.039-96.131,96.131-96.131    c32.512-0.427,62.938,15.972,80.457,43.363c3.557,4.905,10.418,5.998,15.323,2.44c0.937-0.68,1.761-1.503,2.44-2.44    c29.055-44.435,88.631-56.903,133.066-27.848c27.202,17.787,43.575,48.114,43.521,80.615    C391.837,243.456,236.669,337.497,206.367,354.738z" id="svg_3" fill="#eb1a1a" fill-opacity="1"/>
	</g>
</g><g id="svg_4">
</g><g id="svg_5">
</g><g id="svg_6">
</g><g id="svg_7">
</g><g id="svg_8">
</g><g id="svg_9">
</g><g id="svg_10">
</g><g id="svg_11">
</g><g id="svg_12">
</g><g id="svg_13">
</g><g id="svg_14">
</g><g id="svg_15">
</g><g id="svg_16">
</g><g id="svg_17">
</g><g id="svg_18">
</g></g></svg>